<svg width="14" height="13" viewBox="0 0 14 13" fill="none" xmlns="http://www.w3.org/2000/svg">
<path fill-rule="evenodd" clip-rule="evenodd" d="M13.0333 0.29312C13.2208 0.480648 13.3261 0.734956 13.3261 1.00012C13.3261 1.26528 13.2208 1.51959 13.0333 1.70712L5.53795 9.20246C5.4389 9.30153 5.3213 9.38012 5.19187 9.43374C5.06244 9.48736 4.92372 9.51496 4.78362 9.51496C4.64352 9.51496 4.5048 9.48736 4.37537 9.43374C4.24594 9.38012 4.12834 9.30153 4.02929 9.20246L0.305288 5.47912C0.209778 5.38687 0.133596 5.27653 0.0811868 5.15453C0.0287778 5.03252 0.00119157 4.9013 3.77566e-05 4.76852C-0.00111606 4.63574 0.0241857 4.50406 0.0744666 4.38117C0.124747 4.25827 0.199001 4.14662 0.292893 4.05273C0.386786 3.95883 0.498438 3.88458 0.621334 3.8343C0.74423 3.78402 0.87591 3.75872 1.00869 3.75987C1.14147 3.76102 1.27269 3.78861 1.39469 3.84102C1.5167 3.89343 1.62704 3.96961 1.71929 4.06512L4.78329 7.12912L11.6186 0.29312C11.7115 0.200193 11.8218 0.126477 11.9431 0.0761818C12.0645 0.025887 12.1946 0 12.326 0C12.4573 0 12.5874 0.025887 12.7088 0.0761818C12.8302 0.126477 12.9404 0.200193 13.0333 0.29312Z" fill="#4A4A4A"/>
</svg>
