<svg width="18" height="18" viewBox="0 0 18 18" fill="none" xmlns="http://www.w3.org/2000/svg">
<path fill-rule="evenodd" clip-rule="evenodd" d="M12.4142 16.5998C11.3342 16.5601 8.27349 16.1371 5.06799 12.9324C1.86324 9.72685 1.44099 6.66685 1.40049 5.5861C1.34049 3.9391 2.60199 2.33935 4.05924 1.7146C4.23473 1.63883 4.4269 1.60998 4.61689 1.63088C4.80689 1.65179 4.98819 1.72173 5.14299 1.83385C6.34299 2.70835 7.17099 4.03135 7.88199 5.0716C8.03843 5.30015 8.10532 5.57826 8.06991 5.85295C8.0345 6.12764 7.89928 6.3797 7.68999 6.5611L6.22674 7.64785C6.15605 7.6989 6.10629 7.77387 6.0867 7.85884C6.06711 7.94381 6.07903 8.033 6.12024 8.10985C6.45174 8.7121 7.04124 9.6091 7.71624 10.2841C8.39124 10.9591 9.331 11.5876 9.97524 11.9566C10.056 12.0019 10.1511 12.0146 10.2409 11.992C10.3308 11.9694 10.4085 11.9133 10.4582 11.8351L11.4107 10.3854C11.5859 10.1527 11.8442 9.9969 12.1316 9.95049C12.4191 9.90407 12.7133 9.97068 12.9527 10.1364C14.008 10.8669 15.2395 11.6806 16.141 12.8349C16.2622 12.9908 16.3393 13.1764 16.3643 13.3723C16.3892 13.5683 16.361 13.7673 16.2827 13.9486C15.655 15.4134 14.0665 16.6606 12.4142 16.5998Z" fill="#4A4A4A"/>
</svg>
