<svg width="16" height="16" viewBox="0 0 16 16" fill="none" xmlns="http://www.w3.org/2000/svg">
<path d="M15.25 12.75H14.5V6.20625C14.6662 6.14685 14.8061 6.03074 14.8952 5.87835C14.9842 5.72596 15.0167 5.54705 14.9868 5.3731C14.9569 5.19915 14.8667 5.0413 14.7319 4.92733C14.5971 4.81336 14.4265 4.75056 14.25 4.75H11.75V3.20625C11.9162 3.14685 12.0561 3.03074 12.1452 2.87835C12.2342 2.72596 12.2667 2.54705 12.2368 2.3731C12.2069 2.19915 12.1167 2.0413 11.9819 1.92733C11.8471 1.81336 11.6765 1.75056 11.5 1.75H2.5C2.3235 1.75056 2.15286 1.81336 2.0181 1.92733C1.88333 2.0413 1.79308 2.19915 1.76321 2.3731C1.73335 2.54705 1.76579 2.72596 1.85483 2.87835C1.94387 3.03074 2.0838 3.14685 2.25 3.20625V12.75H1.5C1.30109 12.75 1.11032 12.829 0.96967 12.9697C0.829018 13.1103 0.75 13.3011 0.75 13.5C0.75 13.6989 0.829018 13.8897 0.96967 14.0303C1.11032 14.171 1.30109 14.25 1.5 14.25H15.25C15.4489 14.25 15.6397 14.171 15.7803 14.0303C15.921 13.8897 16 13.6989 16 13.5C16 13.3011 15.921 13.1103 15.7803 12.9697C15.6397 12.829 15.4489 12.75 15.25 12.75ZM13 6.25V12.75H11.75V6.25H13ZM3.75 3.25H10.25V12.75H9.25V10C9.25 9.80109 9.17098 9.61032 9.03033 9.46967C8.88968 9.32902 8.69891 9.25 8.5 9.25H5.5C5.30109 9.25 5.11032 9.32902 4.96967 9.46967C4.82902 9.61032 4.75 9.80109 4.75 10V12.75H3.75V3.25ZM7.75 12.75H6.25V10.75H7.75V12.75ZM4.5 5C4.5 4.80109 4.57902 4.61032 4.71967 4.46967C4.86032 4.32902 5.05109 4.25 5.25 4.25H5.75C5.94891 4.25 6.13968 4.32902 6.28033 4.46967C6.42098 4.61032 6.5 4.80109 6.5 5C6.5 5.19891 6.42098 5.38968 6.28033 5.53033C6.13968 5.67098 5.94891 5.75 5.75 5.75H5.25C5.05109 5.75 4.86032 5.67098 4.71967 5.53033C4.57902 5.38968 4.5 5.19891 4.5 5ZM7.5 5C7.5 4.80109 7.57902 4.61032 7.71967 4.46967C7.86032 4.32902 8.05109 4.25 8.25 4.25H8.75C8.94891 4.25 9.13968 4.32902 9.28033 4.46967C9.42098 4.61032 9.5 4.80109 9.5 5C9.5 5.19891 9.42098 5.38968 9.28033 5.53033C9.13968 5.67098 8.94891 5.75 8.75 5.75H8.25C8.05109 5.75 7.86032 5.67098 7.71967 5.53033C7.57902 5.38968 7.5 5.19891 7.5 5ZM4.5 7.5C4.5 7.30109 4.57902 7.11032 4.71967 6.96967C4.86032 6.82902 5.05109 6.75 5.25 6.75H5.75C5.94891 6.75 6.13968 6.82902 6.28033 6.96967C6.42098 7.11032 6.5 7.30109 6.5 7.5C6.5 7.69891 6.42098 7.88968 6.28033 8.03033C6.13968 8.17098 5.94891 8.25 5.75 8.25H5.25C5.05109 8.25 4.86032 8.17098 4.71967 8.03033C4.57902 7.88968 4.5 7.69891 4.5 7.5ZM7.5 7.5C7.5 7.30109 7.57902 7.11032 7.71967 6.96967C7.86032 6.82902 8.05109 6.75 8.25 6.75H8.75C8.94891 6.75 9.13968 6.82902 9.28033 6.96967C9.42098 7.11032 9.5 7.30109 9.5 7.5C9.5 7.69891 9.42098 7.88968 9.28033 8.03033C9.13968 8.17098 8.94891 8.25 8.75 8.25H8.25C8.05109 8.25 7.86032 8.17098 7.71967 8.03033C7.57902 7.88968 7.5 7.69891 7.5 7.5Z" fill="white"/>
</svg>
